HIERARCHY
ROOT hip
{
  OFFSET 0 0 0
  CHANNELS 6 Xposition Yposition Zposition Zrotation Yrotation Xrotation
  JOINT abdomen
  {
    OFFSET 0 20.6881 -0.73152
    CHANNELS 3 Zrotation Xrotation Yrotation
    JOINT chest
    {
      OFFSET 0 11.7043 -0.48768
      CHANNELS 3 Zrotation Xrotation Yrotation
      JOINT neck
      {
        OFFSET 0 22.1894 -2.19456
        CHANNELS 3 Zrotation Xrotation Yrotation
        JOINT head
        {
          OFFSET -0.24384 7.07133 1.2192
          CHANNELS 3 Zrotation Xrotation Yrotation
          JOINT leftEye
          {
            OFFSET 4.14528 8.04674 8.04672
            CHANNELS 3 Zrotation Xrotation Yrotation
            End Site
            {
              OFFSET 1 0 0
            }
          }
          JOINT rightEye
          {
            OFFSET -3.6576 8.04674 8.04672
            CHANNELS 3 Zrotation Xrotation Yrotation
            End Site
            {
              OFFSET 1 0 0
            }
          }
        }
      }
      JOINT rCollar
      {
        OFFSET -2.68224 19.2634 -4.8768
        CHANNELS 3 Zrotation Xrotation Yrotation
        JOINT rShldr
        {
          OFFSET -8.77824 -1.95073 1.46304
          CHANNELS 3 Zrotation Xrotation Yrotation
          JOINT rForeArm
          {
            OFFSET -28.1742 -1.7115 0.48768
            CHANNELS 3 Zrotation Xrotation Yrotation
            JOINT rHand
            {
              OFFSET -22.5879 0.773209 7.07136
              CHANNELS 3 Zrotation Xrotation Yrotation
              JOINT rThumb1
              {
                OFFSET -1.2192 -0.487915 3.41376
                CHANNELS 3 Zrotation Xrotation Yrotation
                JOINT rThumb2
                {
                  OFFSET -3.37035 -0.52449 3.41376
                  CHANNELS 3 Zrotation Xrotation Yrotation
                  End Site
                  {
                    OFFSET -1.78271 -1.18214 1.43049
                  }
                }
              }
              JOINT rIndex1
              {
                OFFSET -7.75947 0.938293 5.60832
                CHANNELS 3 Zrotation Xrotation Yrotation
                JOINT rIndex2
                {
                  OFFSET -2.54057 -0.884171 1.56538
                  CHANNELS 3 Zrotation Xrotation Yrotation
                  End Site
                  {
                    OFFSET -1.62519 -0.234802 1.16502
                  }
                }
              }
              JOINT rMid1
              {
                OFFSET -8.24714 1.18213 3.41376
                CHANNELS 3 Zrotation Xrotation Yrotation
                JOINT rMid2
                {
                  OFFSET -3.10165 -0.590103 1.0647
                  CHANNELS 3 Zrotation Xrotation Yrotation
                  End Site
                  {
                    OFFSET -2.48547 -0.328903 0.83742
                  }
                }
              }
              JOINT rRing1
              {
                OFFSET -8.82822 0.546677 1.51678
                CHANNELS 3 Zrotation Xrotation Yrotation
                JOINT rRing2
                {
                  OFFSET -2.60934 -0.819778 -0.0198488
                  CHANNELS 3 Zrotation Xrotation Yrotation
                  End Site
                  {
                    OFFSET -2.33842 -0.294052 0.168128
                  }
                }
              }
              JOINT rPinky1
              {
                OFFSET -8.27202 -0.0477905 -0.4584
                CHANNELS 3 Zrotation Xrotation Yrotation
                JOINT rPinky2
                {
                  OFFSET -1.82734 -0.647385 -0.700984
                  CHANNELS 3 Zrotation Xrotation Yrotation
                  End Site
                  {
                    OFFSET -1.69225 -0.51767 -0.607171
                  }
                }
              }
            }
          }
        }
      }
      JOINT lCollar
      {
        OFFSET 2.68224 19.2634 -4.8768
        CHANNELS 3 Zrotation Xrotation Yrotation
        JOINT lShldr
        {
          OFFSET 8.77824 -1.95073 1.46304
          CHANNELS 3 Zrotation Xrotation Yrotation
          JOINT lForeArm
          {
            OFFSET 28.1742 -1.7115 0.48768
            CHANNELS 3 Zrotation Xrotation Yrotation
            JOINT lHand
            {
              OFFSET 22.5879 0.773209 7.07136
              CHANNELS 3 Zrotation Xrotation Yrotation
              JOINT lThumb1
              {
                OFFSET 1.2192 -0.487915 3.41376
                CHANNELS 3 Zrotation Xrotation Yrotation
                JOINT lThumb2
                {
                  OFFSET 3.37035 -0.52449 3.41376
                  CHANNELS 3 Zrotation Xrotation Yrotation
                  End Site
                  {
                    OFFSET 1.78271 -1.18214 1.43049
                  }
                }
              }
              JOINT lIndex1
              {
                OFFSET 7.75947 0.938293 5.60832
                CHANNELS 3 Zrotation Xrotation Yrotation
                JOINT lIndex2
                {
                  OFFSET 2.54057 -0.884171 1.56538
                  CHANNELS 3 Zrotation Xrotation Yrotation
                  End Site
                  {
                    OFFSET 1.62519 -0.234802 1.16502
                  }
                }
              }
              JOINT lMid1
              {
                OFFSET 8.24714 1.18213 3.41376
                CHANNELS 3 Zrotation Xrotation Yrotation
                JOINT lMid2
                {
                  OFFSET 3.10165 -0.590103 1.0647
                  CHANNELS 3 Zrotation Xrotation Yrotation
                  End Site
                  {
                    OFFSET 2.48547 -0.328903 0.83742
                  }
                }
              }
              JOINT lRing1
              {
                OFFSET 8.82822 0.546677 1.51678
                CHANNELS 3 Zrotation Xrotation Yrotation
                JOINT lRing2
                {
                  OFFSET 2.60934 -0.819778 -0.0198488
                  CHANNELS 3 Zrotation Xrotation Yrotation
                  End Site
                  {
                    OFFSET 2.33842 -0.294052 0.168128
                  }
                }
              }
              JOINT lPinky1
              {
                OFFSET 8.27202 -0.0477905 -0.4584
                CHANNELS 3 Zrotation Xrotation Yrotation
                JOINT lPinky2
                {
                  OFFSET 1.82734 -0.647385 -0.700984
                  CHANNELS 3 Zrotation Xrotation Yrotation
                  End Site
                  {
                    OFFSET 1.69225 -0.51767 -0.607171
                  }
                }
              }
            }
          }
        }
      }
    }
  }
  JOINT rButtock
  {
    OFFSET -8.77824 4.35084 1.2192
    CHANNELS 3 Zrotation Xrotation Yrotation
    JOINT rThigh
    {
      OFFSET 0 -1.70687 -2.19456
      CHANNELS 3 Zrotation Xrotation Yrotation
      JOINT rShin
      {
        OFFSET 0 -36.8199 0.73152
        CHANNELS 3 Zrotation Xrotation Yrotation
        JOINT rFoot
        {
          OFFSET 0.73152 -45.1104 -5.12064
          CHANNELS 3 Zrotation Xrotation Yrotation
          End Site
          {
            OFFSET -1.1221 -3.69964 12.103
          }
        }
      }
    }
  }
  JOINT lButtock
  {
    OFFSET 8.77824 4.35084 1.2192
    CHANNELS 3 Zrotation Xrotation Yrotation
    JOINT lThigh
    {
      OFFSET 0 -1.70687 -2.19456
      CHANNELS 3 Zrotation Xrotation Yrotation
      JOINT lShin
      {
        OFFSET 0 -36.8199 0.73152
        CHANNELS 3 Zrotation Xrotation Yrotation
        JOINT lFoot
        {
          OFFSET -0.73152 -45.1104 -5.12064
          CHANNELS 3 Zrotation Xrotation Yrotation
          End Site
          {
            OFFSET 1.1221 -3.69964 12.103
          }
        }
      }
    }
  }
}
MOTION
Frames:	4
Frame Time:	0.00833333
20.4582 55.8917 -22.6247 -0.380215 -3.847077 4.385029 -1.217047 10.061855 -97.610098 9.035298 4.10873 92.11974 6.723837 36.901264 146.806404 -18.000232 49.608988 170.976491 -8.810422 1.742534 -22.333938 -3.921093 -0.114431 3.341938 -155.925319 -75.388837 179.680215 63.604367 46.544703 -50.18324 175.306722 8.334633 54.157 152.480957 -37.85562 137.630706 -165.82374 -0.347643 91.420194 178.789035 -9.520308 84.562 -160.64813 -24.139975 118.004254 39.069983 -54.358917 1.859925 -151.175153 20.758928 139.231193 -175.385446 -51.477037 151.137061 2.593809 4.347871 1.290928 6.958721 26.246931 3.065012 -137.801564 3.118238 -141.871446 -70.834077 -62.388399 -71.527412 158.549538 -24.035933 -167.189398 -132.832842 -11.464988 174.226414 178.682839 -6.962981 -35.459503 132.426046 36.428745 -119.085251 173.334655 -12.56693 -89.449691 85.745322 9.588933 -40.223902 -7.832953 -5.567671 -5.187166 -152.439974 -61.46774 -94.619883 36.386821 52.453109 -26.984013 164.618501 5.993343 -132.136581 -8.283379 18.362605 0.83412 -13.258272 -62.748188 -17.496482 133.462052 -7.032761 136.588349 14.769943 -31.048642 23.306658 -2.818545 3.006758 -2.645567 -60.087393 -50.669666 -5.195636 78.779518 22.519211 4.826293 -112.875877 -73.218233 152.124533 59.255983 32.827975 45.551533 -60.997899 -17.470629 -37.968521 -70.970433 65.216389 -1.478012 178.306195 19.309479 -92.568106
20.7474 55.632400000000004 -22.7901 -0.410666 -3.436649 4.50446 -3.180212 12.718842 -9.459823 6.939791 -11.179831 5.554215 7.642564 23.299836 60.15675 -39.404382 -3.230643 -110.836441 -7.85594 1.494152 -21.505611 -4.648432 -0.132492 3.263467 1.959342 -66.866086 -15.259758 -109.450822 -40.405691 -153.940571 179.22013 26.186412 -87.642337 -14.707385 58.017483 7.435732 -176.194079 -12.075399 92.236091 148.325914 -38.40275 103.090417 -142.004196 3.256871 111.588584 -1.3996 6.944114 -2.842459 8.005224 -28.159686 -6.261075 -154.007661 9.470388 133.579783 -141.815121 11.761153 177.082253 5.456455 -37.848943 -14.625792 -74.064696 -54.640723 -77.518633 -164.926995 55.322047 -154.035557 9.733383 34.311332 -9.772632 94.603343 2.821505 -151.34341 -9.865238 32.161857 146.62636 127.643515 39.412692 -114.046586 178.307176 -17.478077 -88.515253 133.891365 6.042861 -73.773164 177.657726 -51.650738 -108.842076 -101.611951 -61.721591 -48.643647 157.215579 11.282538 -141.386028 -47.146701 -85.217162 -25.793762 135.461546 -13.384279 168.23468 -46.086869 49.938937 21.666441 137.873226 4.613306 139.969308 -0.938204 -7.11161 10.514464 162.475557 71.969218 13.913638 150.191665 5.88203 -86.699198 -85.049544 6.424941 -25.15532 -52.307009 78.700321 146.255816 23.928489 8.176483 25.167177 -4.928055 -37.654802 -169.998341 -76.119945 -82.409088 -170.859414 38.188512 -77.136537 -38.457943
21.1389 55.5781 -22.8859 -0.179322 -4.181084 4.03411 -1.283668 9.899826 -97.977309 8.64283 3.913038 93.286767 10.661335 28.212591 89.607404 -41.41798 17.764793 -134.639861 -6.521204 1.069896 -18.615117 -5.34588 -0.086902 1.86128 1.162554 -10.986919 -3.171782 51.329945 8.071764 21.466373 -169.922133 36.876804 51.026803 142.131027 -49.795792 128.988369 10.736532 -12.373631 -2.764134 -134.523653 -69.881214 142.887011 -154.46935 -18.650129 117.561333 -168.938509 -21.249282 116.022949 -156.358395 3.477821 143.968782 -164.588019 -18.855594 151.168427 4.204037 -0.019039 1.708279 1.787246 -58.77655 -15.121797 -140.026239 15.763401 -147.195656 -50.644044 -61.76774 -54.87885 159.531779 -36.2768 -168.893544 56.012673 -10.681168 19.225732 170.295773 -28.41884 71.142415 19.625756 -59.228333 19.38068 88.115964 37.256242 -50.728732 -169.676673 -52.202803 -81.296607 -21.360502 -23.993414 -1.382287 -179.491685 -34.880291 -113.797056 68.970735 61.874842 -58.518847 -171.442364 -38.030211 -136.552821 135.69141 -14.016005 168.810936 68.070751 -67.158254 108.084964 138.986784 5.965238 139.880703 73.219881 -45.617226 74.876573 -20.309637 6.590504 -16.681361 -24.782282 -61.827675 -39.088278 45.28159 72.827444 32.069245 -104.555893 56.219612 31.118439 -59.973454 18.108761 -35.167007 102.697657 11.177667 132.088879 86.242998 0.761567 -7.595467 -104.713271 41.96103 -6.222658
21.523999999999997 55.3303 -22.9667 -0.175479 -4.384537 3.638563 -2.478675 8.196288 -154.116357 -0.352074 8.162784 149.946432 -11.567397 33.599365 -96.323077 45.239501 8.39355 44.242281 -5.604261 0.806855 -16.372728 -4.377327 -0.120742 3.158507 -155.9798 -5.110392 163.339117 -38.155563 -25.749173 -21.412671 -148.92065 23.814872 -103.227607 -3.290941 30.089376 3.197992 -113.270926 35.496493 66.580374 -133.148686 -17.673516 64.767833 -90.428965 37.467607 74.27007 -11.8362 26.809388 7.715431 -141.905859 37.10634 131.701903 -17.968647 44.155004 8.201704 -140.269137 -1.499159 177.851552 12.651803 -47.904461 -9.422686 -15.205361 -41.221573 -18.402278 173.976487 68.9444 -138.625881 159.486276 -32.106088 -167.933398 -137.918447 -18.897129 165.559587 -178.934686 5.566971 -38.639816 129.715555 38.786111 -116.331317 8.770367 9.032555 -3.250713 133.168818 -20.968014 -109.488207 153.824875 -26.797686 -116.43962 110.691054 38.020474 -91.482112 -178.876513 -56.746603 -144.462849 146.942284 42.806574 -141.522277 137.936924 -4.816609 172.729698 123.680043 -38.312464 156.434907 14.265799 -32.291633 17.709898 144.198261 27.139214 153.318859 6.078575 3.10425 2.145117 -72.531483 -45.152103 13.388118 86.342773 9.829044 128.555327 88.552022 -17.805633 -172.794591 -15.847595 1.572971 -4.047298 53.428056 -23.29026 124.419538 85.513592 0.94159 -13.130818 93.6664 -69.814125 11.294623
